<?xml version="1.0" encoding="UTF-8"?>
<svg id="Capa_2" data-name="Capa 2" xmlns="http://www.w3.org/2000/svg" viewBox="0 0 230.96 38.18">
  <defs>
    <style>
      .cls-1 {
        fill: #324d3f;
      }
    </style>
  </defs>
  <g id="Capa_1-2" data-name="Capa 1">
    <g>
      <path class="cls-1" d="M30.52,37.63l-10.43-7.4-10.26,7.63c-1.27.94-3.01-.29-2.53-1.8l3.82-12.2L.69,16.45c-1.29-.92-.65-2.95.93-2.96l12.78-.14,3.82-12.2c.47-1.51,2.6-1.53,3.11-.03l4.08,12.11,12.78-.14c1.58-.02,2.26,2,.99,2.94l-10.26,7.63,4.08,12.11c.51,1.5-1.2,2.77-2.49,1.85Z"/>
      <path class="cls-1" d="M78.29,37.63l-10.43-7.4-10.26,7.63c-1.27.94-3.01-.29-2.53-1.8l3.82-12.2-10.43-7.4c-1.29-.92-.65-2.95.93-2.96l12.78-.14,3.82-12.2c.47-1.51,2.6-1.53,3.11-.03l4.08,12.11,12.78-.14c1.58-.02,2.26,2,.99,2.94l-10.26,7.63,4.08,12.11c.51,1.5-1.2,2.77-2.49,1.85Z"/>
      <path class="cls-1" d="M126.07,37.63l-10.43-7.4-10.26,7.63c-1.27.94-3.01-.29-2.53-1.8l3.82-12.2-10.43-7.4c-1.29-.92-.65-2.95.93-2.96l12.78-.14,3.82-12.2c.47-1.51,2.6-1.53,3.11-.03l4.08,12.11,12.78-.14c1.58-.02,2.26,2,.99,2.94l-10.26,7.63,4.08,12.11c.51,1.5-1.2,2.77-2.49,1.85Z"/>
      <path class="cls-1" d="M173.85,37.63l-10.43-7.4-10.26,7.63c-1.27.94-3.01-.29-2.53-1.8l3.82-12.2-10.43-7.4c-1.29-.92-.65-2.95.93-2.96l12.78-.14,3.82-12.2c.47-1.51,2.6-1.53,3.11-.03l4.08,12.11,12.78-.14c1.58-.02,2.26,2,.99,2.94l-10.26,7.63,4.08,12.11c.51,1.5-1.2,2.77-2.49,1.85Z"/>
      <path class="cls-1" d="M221.63,37.63l-10.43-7.4-10.26,7.63c-1.27.94-3.01-.29-2.53-1.8l3.82-12.2-10.43-7.4c-1.29-.92-.65-2.95.93-2.96l12.78-.14,3.82-12.2c.47-1.51,2.6-1.53,3.11-.03l4.08,12.11,12.78-.14c1.58-.02,2.26,2,.99,2.94l-10.26,7.63,4.08,12.11c.51,1.5-1.2,2.77-2.49,1.85Z"/>
    </g>
  </g>
</svg>