<?xml version="1.0" encoding="UTF-8"?>
<svg id="Capa_2" data-name="Capa 2" xmlns="http://www.w3.org/2000/svg" viewBox="0 0 134.05 114.64">
  <defs>
    <style>
      .cls-1 {
        fill: #324d3f;
      }

      .cls-2 {
        fill: none;
        stroke: #324d3f;
        stroke-linecap: round;
        stroke-miterlimit: 10;
        stroke-width: 4px;
      }
    </style>
  </defs>
  <g id="Capa_1-2" data-name="Capa 1">
    <path class="cls-1" d="M68.51,19.05c.98.2.89.14,1.44-.45,1.31-1.38,2.61-4.05,4.09-5.51,16.62-16.47,48.23-7.92,56.86,12.95,11.66,28.21-11.41,54.38-32.18,70.31-4.5,3.45-26.25,18.29-30.57,18.29-3.46,0-21.76-12.05-25.68-14.81C19.93,83.89-5.5,59.26,1.05,28.66,7.61-1.99,55.94-12.33,68.51,19.05ZM67.21,25.92C59.84-5.25,17.18-3.05,6.6,24.45c-11.36,29.54,16.13,57.1,37.97,72.58,3.45,2.45,21.35,14.25,24.22,14.07,1.72-.11,12.03-6.63,14.29-8.07,21.27-13.48,48.86-36.9,46.81-64.82-2.3-31.4-47.16-43.75-59.42-12.3l-3.28.02Z"/>
    <polyline class="cls-2" points="23.23 55.06 44.32 55.06 54.66 38.72 63.52 74.15 76.81 45.8 83.01 59.09 110.47 58.2"/>
  </g>
</svg>