<?xml version="1.0" encoding="UTF-8"?>
<svg id="Capa_2" data-name="Capa 2" xmlns="http://www.w3.org/2000/svg" viewBox="0 0 113.61 39.74">
  <defs>
    <style>
      .cls-1 {
        fill: #324d3f;
      }
    </style>
  </defs>
  <g id="Capa_1-2" data-name="Capa 1">
    <g>
      <path class="cls-1" d="M49.28,26.22c-2.31,12.48-17.94,17.79-27.68,9.59-13.41-11.29-3.71-32.89,13.45-30.44,5.98.85,11.82,5.22,13.47,11.1l-12.43,8.58c-3.49,1.68-5.63-.09-7.93-2.59l10.55-7.65.37-.72c-8.85-6.49-20.75,2.83-15.99,12.95,3.98,8.47,15.9,7.5,19.51-.82h6.68Z"/>
      <path class="cls-1" d="M82.05,39.57V6.07c4.36,2.7,8.67-.14,13.23-.48,7.43-.55,14.7,2.28,17.18,9.76,1.25,3.78,1.37,15.1.88,19.22-.19,1.61-1,3.09-2.42,3.9-.66.37-4.84,1.79-4.84.74v-19.18c0-.22-.76-2.34-.92-2.72-1.78-3.91-5.62-4.92-9.63-4.68-1.67.1-6.19.79-6.45,2.78-.37,6.05.54,12.75.02,18.71-.36,4.18-3.27,5.26-7.05,5.45Z"/>
      <path class="cls-1" d="M77.2,14.57c-3.01-1.41-6.24-2.17-9.6-1.95-1.62.11-6.18.94-6.43,2.79-.31,5.86.45,12.19.02,17.99-.35,4.71-2.86,5.9-7.29,6.18V6.07c.9.23,1.71.68,2.62.9,3.54.84,6.44-1.05,9.91-1.35,3.65-.32,7.83-.09,10.77,2.27v6.68Z"/>
      <path class="cls-1" d="M16.02,5.58c-.77,3.94-5.03,5.86-8.5,6.91-.27.18-.22.46-.25.72-.34,2.72-.21,9.06,0,11.92.43,5.79,3.81,10.95,8.26,14.43-6.01-.68-13.09-3.64-14.98-9.9-.11-.35-.55-1.93-.55-2.12V0c3.95.13,4.49,2.92,6.43,5.58h9.59Z"/>
    </g>
  </g>
</svg>