<?xml version="1.0" encoding="UTF-8"?>
<svg id="Capa_2" data-name="Capa 2" xmlns="http://www.w3.org/2000/svg" viewBox="0 0 148.65 133.53">
  <defs>
    <style>
      .cls-1 {
        stroke-linecap: round;
      }

      .cls-1, .cls-2 {
        stroke: #324d3f;
        stroke-miterlimit: 10;
        stroke-width: 5px;
      }

      .cls-2 {
        fill: none;
      }
    </style>
  </defs>
  <g id="Capa_1-2" data-name="Capa 1">
    <g>
      <path class="cls-2" d="M29.74,96.41l-.32-.02c-8.42-.6-16.13-4.75-21.13-11.38-5.01-6.63-6.89-15.18-5.16-23.45,2.55-12.25,13.49-21.64,25.91-22.58.06-5.06,1.06-9.79,3.02-14.29C37.93,11.21,51.3,2.5,66.12,2.5c12.49,0,23.63,5.93,30.57,16.28,1.86,2.77,3.18,5.59,4.14,8.34,3.23-.96,6.56-1.44,9.95-1.44,15.32,0,29.18,10.13,33.71,24.64,3.3,10.57,1.61,21.82-4.64,30.85-6.27,9.05-16.21,14.61-27.27,15.23h-.25s-82.6,0-82.6,0Z"/>
      <line class="cls-1" x1="104" y1="107.46" x2="97.37" y2="114.14"/>
      <line class="cls-1" x1="74.19" y1="103.98" x2="67.55" y2="110.65"/>
      <line class="cls-1" x1="37.87" y1="107.52" x2="31.24" y2="114.2"/>
      <line class="cls-1" x1="57.36" y1="120.81" x2="50.72" y2="127.48"/>
      <line class="cls-1" x1="21.04" y1="124.35" x2="14.41" y2="131.03"/>
      <line class="cls-1" x1="87.47" y1="124.35" x2="80.84" y2="131.03"/>
    </g>
  </g>
</svg>