<?xml version="1.0" encoding="UTF-8"?>
<svg id="Capa_2" data-name="Capa 2" xmlns="http://www.w3.org/2000/svg" viewBox="0 0 49.22 42.24">
  <defs>
    <style>
      .cls-1 {
        fill: #324d3f;
        stroke: #324d3f;
        stroke-miterlimit: 10;
      }
    </style>
  </defs>
  <g id="Capa_1-2" data-name="Capa 1">
    <path class="cls-1" d="M25.15,7.35c.35.07.32.05.52-.16.47-.5.94-1.46,1.47-1.98,5.98-5.93,17.35-2.85,20.45,4.66,4.2,10.15-4.11,19.56-11.58,25.29-1.62,1.24-9.44,6.58-11,6.58-1.24,0-7.83-4.33-9.24-5.33C7.67,30.68-1.48,21.82.88,10.81,3.24-.22,20.62-3.94,25.15,7.35ZM24.68,9.83C22.03-1.39,6.68-.6,2.87,9.3c-4.09,10.63,5.8,20.54,13.66,26.11,1.24.88,7.68,5.12,8.71,5.06.62-.04,4.33-2.39,5.14-2.9,7.65-4.85,17.58-13.27,16.84-23.32-.83-11.3-16.96-15.74-21.37-4.42h-1.18Z"/>
  </g>
</svg>