<?xml version="1.0" encoding="UTF-8"?>
<svg id="Capa_2" data-name="Capa 2" xmlns="http://www.w3.org/2000/svg" viewBox="0 0 93.44 73.19">
  <defs>
    <style>
      .cls-1 {
        fill: #f0e9df;
      }
    </style>
  </defs>
  <g id="Capa_1-2" data-name="Capa 1">
    <path class="cls-1" d="M9.52.06l73.89-.06c5.23.52,9.42,4.61,10.03,9.84v53.69c-.83,5.43-5.12,9.3-10.6,9.66H10.41c-5.48-.4-9.82-4.58-10.41-10.03V9.66C.74,4.68,4.53.8,9.52.06ZM85.22,4.79l-2.57-.58H10.79l-2.57.58,35.15,35.63c1.96,1.75,4.88,1.71,6.79-.09L85.22,4.79ZM4.98,7.65l-.77,2.76v52.17c-.09.46.54,2.68.87,2.76l28.51-28.75L4.98,7.65ZM88.46,7.65l-28.65,28.94,28.56,28.75c.42-.1.92-2.27.87-2.76V10.41s-.77-2.76-.77-2.76ZM85.22,68.4l-28.37-28.67c-.44,0-3.6,3.55-4.3,4.12-3.59,2.94-8.34,2.77-11.85-.19-.93-.79-3.05-3.44-3.82-3.83-.15-.08-.23-.13-.38,0l-28.28,28.57,2.76.58h71.47l2.76-.58Z"/>
  </g>
</svg>