<?xml version="1.0" encoding="UTF-8"?>
<svg id="Capa_2" data-name="Capa 2" xmlns="http://www.w3.org/2000/svg" viewBox="0 0 83.07 114.14">
  <defs>
    <style>
      .cls-1 {
        fill: none;
        stroke: #324d3f;
        stroke-linecap: round;
        stroke-miterlimit: 10;
        stroke-width: 4px;
      }
    </style>
  </defs>
  <g id="Capa_1-2" data-name="Capa 1">
    <g>
      <path class="cls-1" d="M19.95,29.64c-1.97,1.61-18.53,16.14-17.93,39.46.07,2.84,1.62,23.02,15.54,28.7,16.14,6.58,38.6-5.14,49.62-17.34C88.61,56.73,78.97,2.65,78.54,2.14c0,0-36.29,5.27-58.59,27.5Z"/>
      <path class="cls-1" d="M53.43,39.2c-6.68,5.63-14.27,13.08-21.52,22.72-14.19,18.85-20.72,37.6-23.91,50.22"/>
      <path class="cls-1" d="M22.94,49.37c-2.39,8.37-1.2,15.54,1.2,21.52"/>
      <path class="cls-1" d="M42.91,71.2c-6.98,5.21-14.11,6.64-20.54,6.52"/>
    </g>
  </g>
</svg>