<?xml version="1.0" encoding="UTF-8"?>
<svg id="Capa_2" data-name="Capa 2" xmlns="http://www.w3.org/2000/svg" viewBox="0 0 56.82 47.63">
  <defs>
    <style>
      .cls-1 {
        stroke-linecap: round;
      }

      .cls-1, .cls-2 {
        fill: none;
        stroke: #324d3f;
        stroke-miterlimit: 10;
        stroke-width: 2px;
      }
    </style>
  </defs>
  <g id="Capa_1-2" data-name="Capa 1">
    <g>
      <path class="cls-2" d="M55.82,12.8v12.46c0,6.52-5.28,11.8-11.8,11.8h-18.69c-.8,0-1.56.32-2.13.88l-8.41,8.41c-.66.66-1.79.06-1.6-.85l-.33-7.15c-.03-.69-.55-1.28-1.24-1.35-5.96-.59-10.62-5.62-10.62-11.74v-12.46C1,6.28,6.28,1,12.8,1h31.22c6.52,0,11.8,5.28,11.8,11.8Z"/>
      <g>
        <line class="cls-1" x1="14.03" y1="13.23" x2="41.31" y2="13.23"/>
        <line class="cls-1" x1="14.03" y1="22.04" x2="27.79" y2="22.04"/>
      </g>
    </g>
  </g>
</svg>