<?xml version="1.0" encoding="UTF-8"?>
<svg id="Capa_2" data-name="Capa 2" xmlns="http://www.w3.org/2000/svg" viewBox="0 0 98.87 109.3">
  <defs>
    <style>
      .cls-1 {
        fill: none;
        stroke: #324d3f;
        stroke-miterlimit: 10;
        stroke-width: 4px;
      }

      .cls-2 {
        fill: #324d3f;
      }
    </style>
  </defs>
  <g id="Capa_1-2" data-name="Capa 1">
    <g>
      <path class="cls-2" d="M49.19,0c1.09-.17,8.24,4.8,9.98,5.74,11.81,6.37,24.99,9.74,38.32,11.05l.97.74c1.71,29.26-1.22,59.38-25.35,78.99-4.5,3.66-16.69,11.49-22.09,12.68-2.77.61-7.49-1.84-10.17-3.15C13.63,92.76,1.61,68.43.35,38.81c-.23-5.31-.65-15.26,0-20.22.08-.61.09-1.1.62-1.52.68-.53,11.44-1.79,13.64-2.24,8.71-1.79,17.42-4.91,25.26-9.09C41.38,4.94,48.65.09,49.19,0ZM94.79,20.57c-16.23-1.52-31.58-7.09-45.27-15.77-13.56,8.83-29.1,14.22-45.27,15.77-.14,13.99,0,28.2,3.96,41.71,5.06,17.23,16.11,30.11,31.79,38.62,1.65.89,7.7,4.08,9.13,4.22,2.5.25,13.79-6.33,16.37-8.06,21.62-14.52,28.38-36.62,29.33-61.69.19-4.92-.15-9.89-.04-14.81Z"/>
      <polyline class="cls-1" points="36.78 58.97 44.9 67.56 69.56 43.03"/>
    </g>
  </g>
</svg>